<svg version="1.1" y="0" xmlns="http://www.w3.org/2000/svg" x="0px"
     viewBox="0 0 650 780" >

    <path fill="#000000" opacity="1.000000" stroke="none"
          d="
M486.077026,528.077637
	C487.385986,529.585815 488.457031,531.454102 490.061829,532.514587
	C492.262512,533.968811 494.898560,534.749268 497.288086,535.938843
	C498.574921,536.579468 500.459381,537.229675 500.815826,538.296082
	C501.782806,541.189575 502.635010,541.842102 505.248993,540.198608
	C507.792786,538.599121 510.229187,536.828918 513.427734,534.645691
	C510.345154,532.309814 507.152374,529.981567 504.061005,527.525635
	C499.882141,524.205750 499.481506,519.078796 504.069000,516.788879
	C507.914490,514.869324 507.759644,511.779480 509.093750,508.934265
	C509.818787,507.387939 511.573120,506.352905 512.724243,504.971497
	C514.909546,502.349182 516.994995,499.643677 519.501465,496.495972
	C525.467407,493.928101 532.413818,490.938202 538.853638,488.166382
	C538.527588,486.836670 538.032532,485.736969 538.062317,484.651642
	C538.086609,483.763153 538.736267,482.891815 539.469727,481.161133
	C538.813354,480.211670 537.453796,478.244995 535.999268,476.140900
	C537.140869,474.218750 538.353149,472.177612 539.886902,469.595276
	C544.254578,472.587097 549.034302,473.265015 554.040466,471.048737
	C554.523132,470.834991 555.455566,471.069122 555.903259,471.434021
	C559.654236,474.491150 564.572449,476.244019 565.298096,482.386047
	C565.543030,484.459106 568.928589,486.607971 571.330994,487.841644
	C573.348572,488.877716 577.279602,487.800323 578.157654,489.122925
	C580.293091,492.339783 581.146118,496.407928 582.752808,500.778168
	C574.061462,500.150177 576.412842,508.057800 574.454041,510.055817
	C574.687073,514.652283 575.024780,517.905457 574.960449,521.150696
	C574.911438,523.626282 580.249573,529.807251 583.736572,530.936768
	C586.160828,531.721985 588.836060,532.188782 590.893311,533.557861
	C595.512756,536.632263 599.838928,536.112305 604.558655,533.929382
	C607.138977,532.736023 610.005432,530.249268 612.938843,533.434998
	C616.113770,536.883057 617.302185,540.497803 614.077148,544.713745
	C612.328186,547.000061 610.811523,549.503418 609.486755,552.062439
	C608.425659,554.112000 607.958801,556.463379 606.959961,558.552490
	C605.899719,560.769836 604.987976,563.439514 603.179932,564.832031
	C600.171753,567.148865 596.407898,568.456970 593.152588,570.494141
	C591.835266,571.318542 591.038818,572.960266 589.967041,574.196960
	C588.965881,575.352173 588.025879,577.293884 586.865051,577.450256
	C581.861328,578.124390 580.456421,582.169128 579.279724,585.749756
	C578.393250,588.447388 577.285278,589.307373 574.840454,588.984192
	C569.551697,588.285095 568.693542,592.787415 566.690491,595.909607
	C566.592712,596.062012 567.561401,596.717224 567.671692,597.217896
	C568.024048,598.817871 568.833191,600.716980 568.293396,602.011719
	C567.631653,603.598999 565.989563,605.062683 564.413513,605.928467
	C560.232666,608.225281 554.744995,607.967773 551.669922,612.545532
	C551.359192,613.008057 550.100891,612.737854 549.375000,613.034546
	C546.491028,614.213013 543.643799,615.481445 540.075623,617.021973
	C537.203857,613.009216 532.344238,613.309265 527.012939,615.444763
	C524.835388,616.317078 522.844177,617.141785 521.428406,613.399231
	C520.646240,611.331726 516.930542,609.770203 514.266846,609.158325
	C510.164734,608.216064 505.830139,608.286072 501.456604,607.914917
	C501.267059,607.490112 500.999603,607.094543 500.911255,606.662476
	C499.260925,598.590393 493.888245,596.354919 486.599823,598.080322
	C481.011444,599.403137 479.489105,594.729919 475.607086,592.419373
	C476.098114,594.056030 476.589172,595.692688 477.235199,597.845947
	C471.418976,598.352905 465.956024,598.829102 460.520203,599.302917
	C459.559296,592.155579 459.372467,592.052917 452.341766,591.978638
	C448.681061,591.939941 445.022736,591.680237 441.363312,591.520386
	C441.154968,590.964722 440.946594,590.409058 440.738220,589.853394
	C444.029114,587.173157 447.716675,584.844604 450.495575,581.710327
	C453.101807,578.770935 454.700500,574.949463 456.859222,571.591064
	C457.228790,571.016052 458.183380,570.817017 459.969757,569.844116
	C459.306824,563.100525 465.086334,557.975037 470.255981,552.113464
	C462.950867,545.914062 462.054596,537.401123 460.641693,529.405945
	C466.578339,527.173828 469.811554,529.974854 473.685059,531.883911
	C478.003540,534.012207 481.554993,530.244446 485.319885,527.660156
	C485.852905,527.796631 485.964966,527.937134 486.077026,528.077637
M482.966461,593.542114
	C482.694336,593.040283 482.422180,592.538452 482.150024,592.036621
	C481.936951,592.166626 481.723846,592.296570 481.510773,592.426514
	C481.928467,593.030823 482.346161,593.635132 483.236511,594.802734
	C487.019440,594.789307 491.046326,595.589539 494.520874,594.547668
	C498.485016,593.359009 499.175720,594.764404 500.099121,597.939331
	C501.582916,603.040771 504.317932,606.740723 510.661987,606.091248
	C515.228455,605.623779 519.396545,607.179871 522.443481,610.833679
	C524.401672,613.181946 526.216003,612.793640 528.903870,611.840881
	C531.239258,611.013123 534.166809,611.814331 536.828796,611.965027
	C538.447693,612.056580 540.059204,612.279724 542.924805,612.570862
	C540.235352,610.539062 538.794983,609.450867 537.354553,608.362610
	C537.438354,608.164062 537.522156,607.965454 537.605896,607.766846
	C541.193787,608.863464 544.781616,609.960083 546.684265,610.541626
	C554.129272,607.134827 560.244263,604.336609 565.882446,601.756592
	C564.738892,599.420593 562.945984,597.281372 563.420776,596.471558
	C565.828308,592.364868 567.511169,587.495483 573.198364,586.180664
	C575.001282,585.763916 577.368164,583.796265 577.767578,582.128784
	C578.602600,578.642822 580.505981,576.876465 583.603516,575.756897
	C584.644348,575.380676 586.224609,574.748108 586.388245,573.982544
	C587.326416,569.594849 591.388489,569.040527 594.225220,566.891846
	C598.560608,563.607910 603.490234,560.817383 604.459045,554.371643
	C604.830139,551.902527 607.464783,549.790283 609.008728,547.475891
	C610.349731,545.465698 612.082947,543.536987 612.725769,541.307800
	C613.121155,539.936768 611.731812,536.632324 611.249573,536.653076
	C607.629333,536.808838 604.052368,537.766724 600.427612,538.088318
	C597.825195,538.319275 595.144470,538.140564 592.548767,537.781860
	C591.179199,537.592468 589.962830,536.233765 588.598877,536.074646
	C579.254578,534.984741 574.518677,528.462036 570.607361,520.996521
	C570.257935,520.329468 570.870544,519.158447 571.036316,518.221436
	C571.271057,518.282715 571.505737,518.343933 571.740417,518.405151
	C571.945129,519.171875 572.149780,519.938599 572.354492,520.705261
	C573.105408,519.350769 573.689270,517.490662 573.013000,516.674255
	C567.614807,510.157074 571.973450,503.985931 575.424683,499.906952
	C579.111389,495.549622 576.216919,493.402496 575.868896,491.010956
	C563.585449,491.193115 561.483765,480.413116 555.547791,473.538025
	C555.635681,475.006348 555.688477,475.888275 555.755615,477.009125
	C554.419067,475.812134 552.700012,473.990875 552.506409,474.140686
	C548.428833,477.296448 544.311279,474.563751 538.996033,473.849762
	C540.506836,476.848480 541.002625,479.785980 542.651978,480.750244
	C548.242371,484.018555 545.982849,487.889404 544.567322,492.195923
	C543.216980,491.585297 542.030518,490.530975 541.216064,490.765991
	C536.549866,492.112427 531.440125,493.003296 527.615723,495.673950
	C525.996826,496.804413 525.024353,498.999542 522.381531,499.399292
	C521.463989,499.538025 520.791687,501.298340 520.007385,502.318024
	C520.981384,502.756012 521.955444,503.193970 523.732788,503.993164
	C522.228760,504.945282 521.205994,506.036377 520.019958,506.259277
	C516.669922,506.888977 512.967407,506.595642 511.150452,510.369995
	C510.854919,510.983917 510.745270,512.130920 511.107147,512.548645
	C514.521545,516.490295 512.519531,518.910828 508.940094,521.071533
	C507.847717,520.287231 506.823730,519.552063 505.758820,518.787476
	C504.680847,520.471130 503.765137,521.901306 502.521362,523.843811
	C506.454651,526.086975 510.156738,528.016724 513.635376,530.288635
	C514.731262,531.004395 515.957520,532.718323 515.833923,533.832275
	C515.631592,535.654907 514.828125,537.975830 513.463562,538.985840
	C510.699219,541.031982 507.389404,542.341125 503.496918,544.376343
	C502.252014,543.885559 497.969910,543.052917 497.925934,542.036926
	C497.693512,536.664795 493.346130,538.838074 491.006622,537.531982
	C489.303864,536.581360 487.660034,535.525208 485.989960,534.516174
	C486.085266,533.771423 486.180573,533.026733 486.275879,532.282043
	C482.180878,533.676453 478.085907,535.070862 473.278290,536.707947
	C472.795929,536.272461 471.229767,534.858398 469.338928,533.151184
	C469.088104,534.661804 468.921021,535.668152 468.711304,536.931274
	C467.054413,535.675842 465.645813,534.608582 464.237244,533.541321
	C463.866669,533.743164 463.496094,533.945007 463.125488,534.146790
	C466.510468,540.260681 469.895447,546.374512 473.628815,553.117615
	C472.260925,554.421692 470.067444,556.251343 468.200073,558.368591
	C466.420471,560.386292 464.442017,562.500488 463.521576,564.938721
	C462.224945,568.373474 462.035889,572.209595 460.975525,575.755188
	C460.025726,578.931091 457.999695,579.924377 454.390656,576.226685
	C455.194122,578.906189 455.627594,580.351868 456.107513,581.952332
	C452.874969,583.623169 449.226288,585.509094 445.577576,587.394958
	C445.746277,587.888184 445.915009,588.381409 446.083710,588.874573
	C448.499756,589.007568 451.008057,589.619080 453.312775,589.174683
	C458.233398,588.226013 460.961334,590.365784 463.107910,594.455994
	C463.670685,595.528320 465.531891,596.300537 466.890045,596.472046
	C468.393341,596.661804 470.003601,596.004333 471.766266,595.679138
	C471.236694,594.893799 470.734863,594.149597 469.909119,592.925049
	C473.153015,591.625305 476.260712,590.380127 479.661591,589.017517
	C478.826752,582.750061 482.505920,580.371521 490.604156,583.208069
	C490.023041,583.914917 489.443817,584.619507 488.811279,585.388977
	C491.159454,586.243591 493.150696,586.968262 495.034058,587.653687
	C492.386688,593.231079 487.846710,594.462341 482.966461,593.542114
M540.323792,487.037598
	C542.877869,486.363647 544.271790,485.385620 541.385315,483.146942
	C541.050903,483.838623 540.785095,484.408905 540.501160,484.970062
	C540.217102,485.531372 539.914917,486.083496 540.323792,487.037598
M469.020630,532.700989
	C468.453369,532.647034 467.886108,532.593079 467.318848,532.539124
	C467.748749,532.826660 468.178680,533.114197 469.020630,532.700989
z"/>
</svg>